<?xml version="1.0" encoding="UTF-8"?>
<svg width="48px" height="48px" viewBox="0 0 48 48" version="1.1" xmlns="http://www.w3.org/2000/svg" xmlns:xlink="http://www.w3.org/1999/xlink">
    <title>illustration-base/mobile-48/literal/illo-membership-card+USAA-logo</title>
    <g id="illustration-base/mobile-48/literal/illo-membership-card+USAA-logo" stroke="none" stroke-width="1" fill="none" fill-rule="evenodd">
        <path d="M6,10 L42,10 C43.6568542,10 45,11.3431458 45,13 L45,35 C45,36.6568542 43.6568542,38 42,38 L6,38 C4.34314575,38 3,36.6568542 3,35 L3,13 C3,11.3431458 4.34314575,10 6,10 Z" id="bg" fill="#FFFFFF"></path>
        <path d="M37,32 L37,34 L30,34 L30,32 L37,32 Z M27,14 L27,34 L7,34 L7,14 L27,14 Z M11.7051934,27.3457448 L11,27.3457448 L11,29.6157763 C11,30.8933325 11.782217,31.1052632 12.4361349,31.1052632 C13.40325,31.1052632 13.851404,30.4677014 13.851404,29.6025176 L13.851404,27.3457448 L13.2114694,27.3457448 L13.2114694,29.6805264 C13.2114694,29.9775398 13.1133596,30.5335558 12.4361349,30.5225058 C11.8199504,30.5092471 11.7051934,29.9439484 11.7051934,29.5806371 L11.7051934,27.3457448 Z M15.6524504,27.27536 C15.0746653,27.27536 14.3466105,27.5715995 14.3466105,28.3821985 C14.3466105,28.9449536 14.760802,29.2099235 15.0438122,29.3481542 C15.1931953,29.4224064 15.375209,29.5030696 15.5265924,29.5839523 C15.6025068,29.6259392 15.9103763,29.728922 15.9103763,30.0633942 C15.9103763,30.4162078 15.5190462,30.5388579 15.3450242,30.5388579 C14.7208502,30.5388579 14.2960031,30.2548836 14.2960031,30.2548836 L14.2960031,30.2548836 L14.3608187,30.968689 C14.3608187,30.968689 14.6160829,31.0974175 15.3800981,31.0988545 C16.1059345,31.0974175 16.6328874,30.6299081 16.6328874,29.9859377 C16.6328874,29.4913565 16.294608,29.1978801 16.006045,29.0555648 C15.7783062,28.9449581 15.6460134,28.8851798 15.448905,28.7910361 C15.2517966,28.6991034 15.0464761,28.5377792 15.0464761,28.2882789 C15.0464761,28.0212089 15.2908642,27.8297195 15.6524504,27.8297195 C16.1818444,27.8297195 16.394934,28.0673959 16.5245629,28.1441917 L16.5245629,28.1441917 L16.5245629,27.4792255 C16.5245629,27.4792255 16.1172516,27.27536 15.6524504,27.27536 Z M18.6639,27.3453036 L17.895223,27.3453036 L18.0186376,27.6314888 L16.7483126,31.0232761 L17.4412979,31.0232761 L17.6645976,30.3773165 L18.9782065,30.3773165 L19.1970671,31.0232761 L20.5095646,31.0232761 L20.732421,30.3773165 L22.0455845,30.3773165 L22.2668862,31.0232761 L23.0366724,31.0232761 L21.7306142,27.3453036 L20.9639351,27.3453036 L21.0855746,27.6314888 L19.8940483,30.8126715 L18.6639,27.3453036 Z M41,28 L41,30 L30,30 L30,28 L41,28 Z M21.4145303,28.4147942 L21.8708965,29.8636179 L20.9064453,29.8636179 L21.4145303,28.4147942 Z M18.3475933,28.4147942 L18.8028503,29.8636179 L17.8357352,29.8636179 L18.3475933,28.4147942 Z M23.6091275,27.4125949 C23.4763915,27.4125949 23.3465399,27.4465167 23.2200181,27.514582 C23.0934963,27.5825364 22.9947205,27.6799953 22.9236907,27.8066237 C22.8526608,27.9332522 22.8171459,28.0652959 22.8171459,28.2027526 C22.8171459,28.3387723 22.8522176,28.4696008 22.922136,28.5952358 C22.9920543,28.7208708 23.0897209,28.8183274 23.2153563,28.8877188 C23.3407688,28.9572211 23.4719524,28.9919168 23.6091275,28.9919168 C23.7463027,28.9919168 23.8774863,28.9572211 24.0028988,28.8877188 C24.1285319,28.8183274 24.2261985,28.7208708 24.2956759,28.5952358 C24.3651533,28.4696008 24.4,28.3387746 24.4,28.2027526 C24.4,28.0652959 24.3647078,27.9332522 24.2941212,27.8066237 C24.2235346,27.6799953 24.1249815,27.5825387 23.998237,27.514582 C23.8717152,27.4465167 23.7418636,27.4125949 23.6091275,27.4125949 Z M23.6091253,27.5434234 C23.7196704,27.5434234 23.8275449,27.5717082 23.9332032,27.6286148 C24.0388593,27.6855192 24.1212107,27.7668454 24.180253,27.8724804 C24.239518,27.9782262 24.2688187,28.0882785 24.2688187,28.2027526 C24.2688187,28.3164527 24.2399635,28.4255138 24.1818077,28.5298204 C24.1236518,28.634127 24.0424119,28.7154533 23.9374195,28.773686 C23.8324295,28.8320274 23.7232208,28.8610883 23.6091275,28.8610883 C23.4950343,28.8610883 23.3858279,28.8320274 23.2808355,28.773686 C23.1758455,28.7154555 23.09416,28.6341293 23.0360042,28.5298204 C22.9774051,28.4255115 22.9483272,28.3164527 22.9483272,28.2027526 C22.9483272,28.0882785 22.9780711,27.978224 23.0375589,27.8724804 C23.0968239,27.7668454 23.1793958,27.6855215 23.2846087,27.6286148 C23.3898215,27.5717082 23.4979209,27.5434234 23.6091253,27.5434234 Z M23.5545289,27.7892759 L23.2619746,27.7892759 L23.2619746,28.639101 L23.3993702,28.639101 L23.3993702,28.2781114 L23.4801669,28.2781114 C23.5283331,28.2781114 23.56518,28.2879462 23.5902643,28.3073918 C23.6266679,28.3339115 23.6743909,28.3998767 23.7338787,28.505179 L23.8093476,28.639101 L23.9771553,28.639101 L23.8734972,28.4728051 C23.8237763,28.3940225 23.7818244,28.3377789 23.7476414,28.3042984 C23.7294396,28.2868396 23.7052463,28.2718136 23.6752796,28.2592157 C23.7485302,28.2536918 23.8075724,28.2278352 23.8519655,28.1818677 C23.8963586,28.1356807 23.9185563,28.0817589 23.9185563,28.0196588 C23.9185563,27.9755718 23.905239,27.9341347 23.8786023,27.8950195 C23.8521883,27.8559042 23.8164506,27.8286107 23.7716143,27.8128107 C23.7269984,27.7971193 23.6546367,27.7892759 23.5545289,27.7892759 Z M18.2341683,23.5756155 L18.5564665,24.9796892 L21.7146308,26.8387876 C21.7146308,26.8387876 22.0606791,27.0706074 22.398738,27.0706074 C22.7383493,27.0706074 23.0366747,26.8280679 23.0366747,26.8280679 L23.0366747,25.6437706 C23.0366747,25.6437706 22.734133,25.8575796 22.398738,25.8575796 C22.064009,25.8575796 21.7146308,25.6256488 21.7146308,25.6256488 L18.2341683,23.5756155 Z M11.6359387,22.9500995 C11.2870038,22.9500995 11,23.1930803 11,23.1930803 L11,24.3769363 C11,24.3769363 11.2858946,24.163899 11.6359387,24.163899 C11.9868716,24.163899 12.3224871,24.3972668 12.3224871,24.3972668 L15.1956433,26.0882996 L15.4409179,25.0194721 L12.3224871,23.183026 C12.3224871,23.183026 11.9864261,22.9500995 11.6359387,22.9500995 Z M41,24 L41,26 L30,26 L30,24 L41,24 Z M17.8230817,21.7846979 L18.1456026,23.1887716 L21.7146308,25.289855 C21.7146308,25.289855 22.0606791,25.5216749 22.398738,25.5216749 C22.7383493,25.5216749 23.0366747,25.2792463 23.0366747,25.2792463 L23.0366747,24.094838 C23.0366747,24.094838 22.734133,24.308647 22.398738,24.308647 C22.064009,24.308647 21.7146308,24.0767163 21.7146308,24.0767163 L17.8230817,21.7846979 Z M11.6359387,21.4011647 C11.2870038,21.4011647 11,21.6438151 11,21.6438151 L11,22.8281124 C11,22.8281124 11.2858946,22.6147447 11.6359387,22.6147447 C11.9868716,22.6147447 12.3224871,22.8482233 12.3224871,22.8482233 L15.5088406,24.7236738 L15.7538924,23.6548463 L12.3224871,21.6339803 C12.3224871,21.6339803 11.9864261,21.4011647 11.6359387,21.4011647 Z M17.4124405,19.9935562 L17.734516,21.3979603 L21.7146308,23.7410311 C21.7146308,23.7410311 22.0606791,23.9729618 22.398738,23.9729618 C22.7383493,23.9729618 23.0366747,23.7303114 23.0366747,23.7303114 L23.0366747,22.5456837 C23.0366747,22.5456837 22.734133,22.7597144 22.398738,22.7597144 C22.064009,22.7597144 21.7146308,22.5276728 21.7146308,22.5276728 L17.4124405,19.9935562 Z M11.6359387,19.852343 C11.2870038,19.852343 11,20.0948825 11,20.0948825 L11,21.279069 C11,21.279069 11.2858946,21.0655904 11.6359387,21.0655904 C11.9868716,21.0655904 12.3224871,21.2991799 12.3224871,21.2991799 L15.8218174,23.3591589 L16.0673148,22.2901096 L12.3224871,20.0850477 C12.3224871,20.0850477 11.9864261,19.852343 11.6359387,19.852343 Z M17.6308578,17 L16.5396621,17 C16.2508809,17 16.181183,17.2738091 16.181183,17.2738091 L15.4236048,20.3625069 L12.3224871,18.5361129 C12.3224871,18.5361129 11.9864261,18.3031864 11.6359387,18.3031864 C11.2870038,18.3031864 11,18.5461672 11,18.5461672 L11,19.7301319 C11,19.7301319 11.2858946,19.5168751 11.6359387,19.5168751 C11.9868716,19.5168751 12.3224871,19.7502428 12.3224871,19.7502428 L16.1352352,21.9944177 L17.003354,18.2105907 L17.3236543,19.6077035 L21.7146308,22.1918768 C21.7146308,22.1918768 22.0606791,22.4239184 22.398738,22.4239184 C22.7383493,22.4239184 23.0366747,22.181268 23.0366747,22.181268 L23.0366747,20.9966403 C23.0366747,20.9966403 22.734133,21.2110037 22.398738,21.2110037 C22.064009,21.2110037 21.7146308,20.9787403 21.7146308,20.9787403 L18.3178494,18.978207 L18.082785,18.0808688 C18.082785,18.0439621 18.1165247,18.0257317 18.1293987,18.0230796 L18.7051837,17.8413141 C18.7815414,17.8413141 18.8259345,17.9082751 18.8259345,17.965623 L18.8570103,18.0288275 C18.8774305,18.0398775 18.970658,18.0119209 18.970658,17.9941318 L18.970658,17.6405443 C18.9728787,17.4068462 18.7873124,17.1984503 18.5340461,17.1984503 L17.9589271,17.1984503 C17.9589271,17.1984503 17.8750232,17 17.6308578,17 Z" id="shapes" fill="#006EC8"></path>
        <path d="M42,9 L6,9 C3.790861,9 2,10.790861 2,13 L2,35 C2,37.209139 3.790861,39 6,39 L42,39 C44.209139,39 46,37.209139 46,35 L46,13 C46,10.790861 44.209139,9 42,9 Z M6,11 L42,11 C43.1045695,11 44,11.8954305 44,13 L44,35 C44,36.1045695 43.1045695,37 42,37 L6,37 C4.8954305,37 4,36.1045695 4,35 L4,13 C4,11.8954305 4.8954305,11 6,11 Z" id="strokes" fill="#12395B" fill-rule="nonzero"></path>
    </g>
</svg>