<?xml version="1.0" encoding="UTF-8"?>
<svg width="48px" height="48px" viewBox="0 0 48 48" version="1.1" xmlns="http://www.w3.org/2000/svg" xmlns:xlink="http://www.w3.org/1999/xlink">
    <title>illustration-base/mobile-48/literal/illo-cash</title>
    <g id="illustration-base/mobile-48/literal/illo-cash" stroke="none" stroke-width="1" fill="none" fill-rule="evenodd">
        <polygon id="bg" fill="#FFFFFF" points="45 10 45 32 43 32 43 35.5 41 35.5 41 39 7 39 7 35.5 5 35.5 5 32 3 32 3 10"></polygon>
        <path d="M24,12 C28.9705627,12 33,16.0294373 33,21 C33,25.9705627 28.9705627,30 24,30 C19.0294373,30 15,25.9705627 15,21 C15,16.0294373 19.0294373,12 24,12 Z M17.2001756,12.99895 C16.5120113,13.5843703 15.9003282,14.256997 15.3822131,14.9997431 L8,15 L8,27 L15.3825401,27.0007257 C15.9005856,27.743286 16.5121561,28.4157528 17.2001756,29.00105 L6,29 L6,13 L17.2001756,12.99895 Z M30.7998244,12.99895 L42,13 L42,29 L30.7998244,29.00105 C31.4878439,28.4157528 32.0994144,27.743286 32.6174599,27.0007257 L40,27 L40,15 L32.6177869,14.9997431 C32.0996718,14.256997 31.4879887,13.5843703 30.7998244,12.99895 Z M25,13.5 L23,13.5 L22.9999066,15.1404624 C21.4652461,15.5243893 20.4472265,16.6673092 20.3650558,18.2212003 L20.3596797,18.4261838 L20.3596797,18.45961 L20.3645812,18.6698804 C20.4526036,20.5213106 21.7206029,21.2793474 23.7190111,22.0529248 C25.3176547,22.6604093 25.6929884,23.0232319 25.7226041,23.5655619 L25.7245822,23.6406685 L25.7245822,23.6573816 L25.7187243,23.7759993 C25.6564575,24.396054 25.1012822,24.810585 24.2204039,24.810585 C23.1284819,24.810585 22.2258264,24.2573445 21.4716722,23.6264562 L21.3123259,23.4902507 L19.875,25.2785515 L20.113471,25.4912008 C20.9178231,26.1747749 21.8141332,26.607047 22.726476,26.8259798 L23.0005839,26.8852974 L23,28.5 L25,28.5 L25.0008256,26.942005 C26.7871758,26.6736652 28.0392538,25.4887288 28.1264094,23.6923492 L28.1312674,23.4902507 L28.1312674,23.4568245 L28.1263817,23.2508026 C28.0450318,21.568344 26.9497804,20.7351618 24.9892061,19.9637883 C23.2433844,19.2430362 22.8022574,18.9213672 22.7685278,18.307421 L22.7663649,18.2256267 L22.7663649,18.2089136 L22.7723875,18.0983118 C22.8323686,17.5566461 23.3366992,17.189415 24.1201253,17.189415 C24.9532087,17.189415 25.7435698,17.6023965 26.4386275,18.1391629 L26.610376,18.275766 L27.9641365,16.4373259 L27.746509,16.2499628 C27.0170096,15.6537012 26.1776252,15.2752759 25.2958116,15.1050507 L25.0003948,15.0560068 L25,13.5 Z" id="shapes" fill="#006EC8"></path>
        <path d="M46,9 L46,33 L44,33 L44,36.5 L42,36.5 L42,40 L6,40 L6,36.5 L4,36.5 L4,33 L2,33 L2,9 L46,9 Z M40,36.5 L8,36.5 L8,38 L40,38 L40,36.5 Z M42,33 L6,33 L6,34.5 L42,34.5 L42,33 Z M44,11 L4,11 L4,31 L44,31 L44,11 Z" id="strokes" fill="#12395B" fill-rule="nonzero"></path>
    </g>
</svg>