<?xml version="1.0" encoding="UTF-8"?>
<svg width="48px" height="48px" viewBox="0 0 48 48" version="1.1" xmlns="http://www.w3.org/2000/svg" xmlns:xlink="http://www.w3.org/1999/xlink">
    <title>illustration-base/mobile-48/literal/illo-credit-debit-card</title>
    <g id="illustration-base/mobile-48/literal/illo-credit-debit-card" stroke="none" stroke-width="1" fill="none" fill-rule="evenodd">
        <path d="M36,9 C37.6568542,9 39,10.3431458 39,12 L39,16 L42,16 C43.6568542,16 45,17.3431458 45,19 L45,36 C45,37.6568542 43.6568542,39 42,39 L12,39 C10.3431458,39 9,37.6568542 9,36 L9,32 L6,32 C4.34314575,32 3,30.6568542 3,29 L3,12 C3,10.3431458 4.34314575,9 6,9 L36,9 Z" id="bg" fill="#FFFFFF"></path>
        <path d="M12,25 L12,27 L7,27 L7,25 L12,25 Z M19,25 L19,27 L14,27 L14,25 L19,25 Z M26,25 L26,27 L21,27 L21,25 L26,25 Z M33,25 L33,27 L28,27 L28,25 L33,25 Z M45,21 L45,25 L39,25 L39,21 L45,21 Z M12,17 C12.5522847,17 13,17.4477153 13,18 L13,21 C13,21.5522847 12.5522847,22 12,22 L8,22 C7.44771525,22 7,21.5522847 7,21 L7,18 C7,17.4477153 7.44771525,17 8,17 L12,17 Z" id="shapes" fill="#006EC8"></path>
        <path d="M36,8 C38.209139,8 40,9.790861 40,12 L40,12 L40,15 L42,15 C44.1421954,15 45.8910789,16.6839685 45.9951047,18.8003597 L46,19 L46,36 C46,38.1421954 44.3160315,39.8910789 42.1996403,39.9951047 L42,40 L12,40 C9.85780461,40 8.10892112,38.3160315 8.00489531,36.1996403 L8,36 L8,33 L6,33 C3.85780461,33 2.10892112,31.3160315 2.00489531,29.1996403 L2,29 L2,12 C2,9.790861 3.790861,8 6,8 L6,8 Z M40,29 C40,31.209139 38.209139,33 36,33 L36,33 L10,33 L10,36 C10,37.0543618 10.8158778,37.9181651 11.8507377,37.9945143 L12,38 L42,38 C43.0543618,38 43.9181651,37.1841222 43.9945143,36.1492623 L44,36 L44,19 C44,17.9456382 43.1841222,17.0818349 42.1492623,17.0054857 L42,17 L40,17 Z M36,10 L6,10 C4.8954305,10 4,10.8954305 4,12 L4,12 L4,29 C4,30.1045695 4.8954305,31 6,31 L6,31 L36,31 C37.1045695,31 38,30.1045695 38,29 L38,29 L38,12 C38,10.8954305 37.1045695,10 36,10 L36,10 Z" id="strokes" fill="#12395B" fill-rule="nonzero"></path>
    </g>
</svg>