<svg height="48" viewBox="0 0 48 48" width="48" xmlns="http://www.w3.org/2000/svg"><g fill="none" fill-rule="evenodd"><path d="m29 9c3.0775996-1.84655977 6.9224004-1.84655977 10 0l.2837889.17027335c2.9259236 1.75555415 4.7162111 4.91754275 4.7162111 8.32972665v.5294373c0 3.1825978-1.2642821 6.2348448-3.5147186 8.4852813l-1.0077043 1.0086468c.0148358.1568804.0224229.3158715.0224229.4766346 0 2.7614237-2.2385763 5-5 5-.1607631 0-.3197542-.0075871-.4766346-.0224229l-10.0233654 10.0224229-16.48528137-16.4852814c-2.25043655-2.2504365-3.51471863-5.3026835-3.51471863-8.4852813v-.5294373c0-3.4121839 1.79028755-6.5741725 4.71621109-8.32972665l.28378891-.17027335c3.0775996-1.84655977 6.9224004-1.84655977 10 0l5 3z" fill="#fff"/><path d="m20.847 14.9992375 2.477 14.8647625.9552408-2.864 7.9291439-.00083c.3859677-.8825091 1.266777-1.49917 2.2916153-1.49917 1.3807119 0 2.5 1.1192881 2.5 2.5s-1.1192881 2.5-2.5 2.5c-1.0250096 0-1.9059422-.6168671-2.2918089-1.4996126l-6.4881911-.0003874-2 5.9992375h-1.568l-2.152-12.9162375-1.154 6.9162375h-1.261l-1.585-1.5842375-1.5857864 1.585h-5.4142136v-2h4.584l2.416-2.4142136 1.333 1.3322136 1.82-10.9187625z" fill="#006ec8"/><path d="m39.2128475 7.96809501.3016483.17441206.2837889.17027335c3.1322134 1.87932808 5.0844796 5.21996798 5.1966093 8.85589938l.005106.3313202v.5294373c0 3.3246781-1.2735546 6.5180493-3.5505022 8.927886l-.2571096.2645021-.6929534.6949633c.0003764.0276922.0005652.0554297.0005652.0832113 0 3.3137085-2.6862915 6-6 6l-.083-.0029198-10.417 10.4171334-17.19238816-17.1923882c-2.35090245-2.3509025-3.70841782-5.5094959-3.8023846-8.823553l-.00522724-.3688351v-.5294373c0-3.6527571 1.86014236-7.0455567 4.92023758-9.01237837l.28147776-.17484121.2837889-.17027335c3.29445016-1.9766701 7.38600456-2.03480746 10.72734326-.17441206l.3016483.17441206 4.4855042 2.69049293 4.4855042-2.69049293c3.2944502-1.9766701 7.3860046-2.03480746 10.7273433-.17441206zm-9.4200168 1.72926472-.2783349.1601332-5.5144958 3.30869747-5.5144958-3.30869747c-2.6688866-1.60133199-5.980911-1.65470973-8.69267351-.1601332l-.27833493.1601332-.28378891.17027337c-2.54004981 1.5240299-4.1260346 4.2296267-4.22571307 7.176751l-.00499378.2954827v.5294373c0 2.8006861 1.0680655 5.4912518 2.97863278 7.527138l.24319263.2510365 15.77817459 15.7773882 8.0894208-8.0888869c-1.345527-.5909907-2.4326784-1.6615972-3.0450652-2.9954305l2.3339367.0005367c.7330842.9137636 1.8590769 1.4987807 3.1217077 1.4987807 2.209139 0 4-1.790861 4-4s-1.790861-4-4-4c-1.2630957 0-2.3894527.585448-3.1225173 1.4997902l-2.3335831.0005206c.9479406-2.0656968 3.0344845-3.5003108 5.4561004-3.5003108 2.4546133 0 4.5649608 1.4739769 5.4942145 3.5851028l-.2160399.222509c1.8978681-1.8978681 3.0306119-4.4178342 3.1997046-7.0806123l.0165743-.3480894.0055465-.3494728v-.5294373c0-2.9621816-1.5040477-5.7141705-3.9799018-7.315927l-.250805-.1563067-.283789-.17027337c-2.6688866-1.60133199-5.980911-1.65470973-8.6926735-.1601332z" fill="#12395b" fill-rule="nonzero"/></g></svg>