<?xml version="1.0" encoding="UTF-8"?>
<svg width="48px" height="48px" viewBox="0 0 48 48" version="1.1" xmlns="http://www.w3.org/2000/svg" xmlns:xlink="http://www.w3.org/1999/xlink">
    <title>illustration-base/mobile-48/literal/illo-bank</title>
    <g id="illustration-base/mobile-48/literal/illo-bank" stroke="none" stroke-width="1" fill="none" fill-rule="evenodd">
        <path d="M24,4.4 L45,17 L44,23 L42,22.999 L42,35 L44,35 L45,41 L34,41 L34,43 L14,43 L14,41 L3,41 L4,35 L6,35 L6,22.999 L4,23 L3,17 L24,4.4 Z M15,22.999 L10,22.999 L10,35 L15,35 L15,22.999 Z M29,22.999 L19,22.999 L19,35 L29,35 L29,22.999 Z M38,22.999 L33,22.999 L33,35 L38,35 L38,22.999 Z" id="bg" fill="#FFFFFF"></path>
        <path d="M24,28 C25.1045695,28 26,28.8954305 26,30 L26,35 L22,35 L22,30 C22,28.8954305 22.8954305,28 24,28 Z M24,7.315 L41.807,17.999 L6.193,17.999 L24,7.315 Z M24,11 C22.6192881,11 21.5,12.1192881 21.5,13.5 C21.5,14.8807119 22.6192881,16 24,16 C25.3807119,16 26.5,14.8807119 26.5,13.5 C26.5,12.1192881 25.3807119,11 24,11 Z" id="shapes" fill="#006EC8"></path>
        <path d="M24,3.23380962 L46.0983262,16.4928053 L44.8471271,24 L42.9995396,23.9998096 L43,34 L44.8471271,34 L46.1804604,42 L35,42 L35,44 L13,44 L13,42 L1.81953958,42 L3.15287291,34 L5,34 L4.99953958,23.9998096 L3.15287291,24 L1.9016738,16.4928053 L24,3.23380962 Z M40.9995396,23.9998096 L38.9995396,23.9998096 L39,36 L32,36 L31.9995396,23.9998096 L29.9995396,23.9998096 L30,36 L18,36 L17.9995396,23.9998096 L15.9995396,23.9998096 L16,36 L9,36 L8.99953958,23.9998096 L6.99953958,23.9998096 L7,36 L4.847,36 L4.18,40 L15,40 L15,42 L33,42 L33,40 L43.819,40 L43.152,36 L41,36 L40.9995396,23.9998096 Z M31,38 L31,40 L17,40 L17,38 L31,38 Z M13.9995396,23.9998096 L10.9995396,23.9998096 L11,34 L14,34 L13.9995396,23.9998096 Z M27.9995396,23.9998096 L19.9995396,23.9998096 L20,34 L28,34 L27.9995396,23.9998096 Z M36.9995396,23.9998096 L33.9995396,23.9998096 L34,34 L37,34 L36.9995396,23.9998096 Z M24,5.566 L4.098,17.507 L4.847,21.999 L43.152,21.999 L43.901,17.507 L24,5.566 Z" id="strokes" fill="#12395B" fill-rule="nonzero"></path>
    </g>
</svg>