<?xml version="1.0" encoding="UTF-8"?>
<svg width="48px" height="48px" viewBox="0 0 48 48" version="1.1" xmlns="http://www.w3.org/2000/svg" xmlns:xlink="http://www.w3.org/1999/xlink">
    <title>illustration-base/mobile-48/literal/illo-car</title>
    <g id="illustration-base/mobile-48/literal/illo-car" stroke="none" stroke-width="1" fill="none" fill-rule="evenodd">
        <path d="M16,35 C16,37.209139 14.209139,39 12,39 C9.790861,39 8,37.209139 8,35 L8,35 L5.5,35 L4.5,33 L2,33 L2,25 L6.666,11 L26,11 L36,21 L44,21 C44.5522847,21 45.0522847,21.2238576 45.4142136,21.5857864 C45.7761424,21.9477153 46,22.4477153 46,23 L46,33 L43.5,33 L42.5,35 L40,35 C40,37.209139 38.209139,39 36,39 C33.790861,39 32,37.209139 32,35 L32,35 Z" id="bg" fill="#FFFFFF"></path>
        <path d="M11.499,13.5 L11.499,22 L5.635,22 L8.46797945,13.5 L11.499,13.5 Z M20.5,13.5 L20.5,22 L13,22 L13,13.5 L20.5,13.5 Z M24.9644661,13.5 L33.464,22 L22,22 L22,13.5 L24.9644661,13.5 Z" id="shapes" fill="#006EC8"></path>
        <path d="M16.8997409,36.0011864 C16.4360122,38.2828356 14.4185387,40 12,40 C9.58146126,40 7.56398776,38.2828356 7.10025909,36.0011864 L4.88196601,36 L3.881,34 L1,34 L1,24.8377443 L5.94520822,10 L26.4142136,10 L36.415,20 L44,20 C45.5976809,20 46.9036609,21.24892 46.9949073,22.8237272 L47,23 L47,34 L44.118,34 L43.118034,36 L40.8997409,36.0011864 C40.4360122,38.2828356 38.4185387,40 36,40 C33.5814613,40 31.5639878,38.2828356 31.1002591,36.0011864 Z M36,32 C34.3431458,32 33,33.3431458 33,35 C33,36.6568542 34.3431458,38 36,38 C37.6568542,38 39,36.6568542 39,35 C39,33.3431458 37.6568542,32 36,32 Z M12,32 C10.3431458,32 9,33.3431458 9,35 C9,36.6568542 10.3431458,38 12,38 C13.6568542,38 15,36.6568542 15,35 C15,33.3431458 13.6568542,32 12,32 Z M25.585,12 L7.386,12 L3,25.16 L3,32 L5.11803399,32 L6.118,34 L7.10005628,33.999812 C7.56339924,31.7176654 9.5811085,30 12,30 C14.4188915,30 16.4366008,31.7176654 16.8999437,33.999812 L31.1000563,33.999812 C31.5633992,31.7176654 33.5811085,30 36,30 C38.4188915,30 40.4366008,31.7176654 40.8999437,33.999812 L41.881,34 L42.881966,32 L45,32 L45,23 C45,22.4477153 44.5522847,22 44,22 L35.5857864,22 L25.585,12 Z" id="strokes" fill="#12395B" fill-rule="nonzero"></path>
    </g>
</svg>