<?xml version="1.0" encoding="UTF-8"?>
<svg width="48px" height="48px" viewBox="0 0 48 48" version="1.1" xmlns="http://www.w3.org/2000/svg" xmlns:xlink="http://www.w3.org/1999/xlink">
    <title>illustration-base/mobile-48/literal/illo-postcard-beach</title>
    <g id="illustration-base/mobile-48/literal/illo-postcard-beach" stroke="none" stroke-width="1" fill="none" fill-rule="evenodd">
        <rect id="bg" fill="#FFFFFF" x="2" y="11" width="44" height="26"></rect>
        <path d="M32.9594306,28.749 L34.125,32.25 L32.2983883,31.1559639 C31.6386983,31.1299443 30.9708691,31.1071803 30.2949008,31.087672 L30.9634306,29.749 L29.2854306,29.749 L28.638703,31.0467251 C27.5579416,31.0243899 26.4571617,31.0100621 25.3363634,31.0037416 L26.4634306,28.749 L32.9594306,28.749 Z M43.5,13.5 L43.5,32 C42.5314468,31.8860526 41.5385487,31.7818432 40.5213054,31.6873717 L39.0406122,27.25 L31.5404306,27.249 L29.5405694,21.25 L22.9594306,21.25 L25.19,27.942 L23.0364306,32.249 L20.9867791,31.019367 C19.1199506,31.0437564 17.3107112,31.0911815 15.559061,31.1616422 C15.6838036,29.238175 15.4345231,27.3035694 14.8218492,25.4655475 L14.8218492,25.4655475 L13.3324466,20.9994466 L15.793,21 L19.1464466,24.3535534 L19.9472136,23.7763932 L18.2236068,20.3291796 L18.1546829,20.2061125 C17.8826144,19.7697322 17.4027776,19.5 16.881966,19.5 L16.881966,19.5 L14.6374466,19.4994466 L19.7572479,16.4287465 L19.5,15.5 L17.4142136,15.5 L17.265957,15.50734 C16.9225721,15.5414349 16.5996949,15.6931983 16.3535534,15.9393398 L16.3535534,15.9393398 L13.5414466,18.7504466 L13.98,16.156 L15.3084466,13.4994466 L43.5,13.5 Z M10.6944466,20.4994466 L8.72825637,21.679951 L8.59807582,21.7676132 C8.22392308,22.0490742 8,22.4919855 8,22.9661904 L8,22.9661904 L8,26 L8.97434165,26.1581139 L9.937,23.269 L12.1714466,21.0344466 L12.8875085,25.3250512 C13.2193037,27.3158221 13.1452482,29.3486158 12.6748453,31.3023108 C9.77939673,31.4665898 7.05499265,31.6994126 4.5,32 L4.49944661,22.8084466 L9.117,20.5 L10.6944466,20.4994466 Z M34.5384306,28.749 L37.959,28.75 L38.8913577,31.5460128 C37.7540875,31.4541972 36.5878683,31.3739611 35.3927003,31.3053046 L34.5384306,28.749 Z M13.7924466,13.4994466 L12.4393398,14.8535534 L12.3396968,14.9635768 C12.1209957,15.2304953 12,15.5661169 12,15.9142136 L12,15.9142136 L11.9994466,18.7924466 L8.90564568,15.6985389 L8.79739639,15.6002909 C8.31185949,15.2008312 7.6212974,15.1441264 7.07324188,15.4729597 L7.07324188,15.4729597 L5.24275212,16.5712535 L5.5,17.5 L7.862,17.5 L10.3614466,18.9994466 L7.41421356,19 L7.26595699,19.00734 C6.92257215,19.0414349 6.59969489,19.1931983 6.35355339,19.4393398 L6.35355339,19.4393398 L4.49944661,21.2924466 L4.5,13.5 L13.7924466,13.4994466 Z" id="shapes" fill="#006EC8"></path>
        <path d="M47,10 L1,10 L1,38 L47,38 L47,10 Z M45,12 L45,36 L3,36 L3,12 L45,12 Z" id="strokes" fill="#12395B" fill-rule="nonzero"></path>
    </g>
</svg>