<svg height="264" viewBox="0 0 264 264" width="264" xmlns="http://www.w3.org/2000/svg" xmlns:xlink="http://www.w3.org/1999/xlink"><defs><path id="a" d="m132 15c32.308658 0 61.558658 13.0956711 82.731493 34.2685066 21.172836 21.1728355 34.268507 50.4228355 34.268507 82.7314934 0 32.308658-13.095671 61.558658-34.268507 82.731493-21.172835 21.172836-50.422835 34.268507-82.731493 34.268507-32.3086579 0-61.5586579-13.095671-82.7314934-34.268507-21.1728355-21.172835-34.2685066-50.422835-34.2685066-82.731493 0-32.3086579 13.0956711-61.5586579 34.2685066-82.7314934s50.4228355-34.2685066 82.7314934-34.2685066zm0 6c-30.651804 0-58.4018036 12.4240982-78.4888527 32.5111473s-32.5111473 47.8370487-32.5111473 78.4888527 12.4240982 58.401804 32.5111473 78.488853 47.8370487 32.511147 78.4888527 32.511147 58.401804-12.424098 78.488853-32.511147 32.511147-47.837049 32.511147-78.488853-12.424098-58.4018036-32.511147-78.4888527-47.837049-32.5111473-78.488853-32.5111473zm0 6c57.989899 0 105 47.0101013 105 105 0 57.989899-47.010101 105-105 105-57.9898987 0-105-47.010101-105-105 0-57.9898987 47.0101013-105 105-105z"/><mask id="b" fill="#fff"><use fill="#fff" fill-rule="evenodd" xlink:href="#a"/></mask></defs><g fill="none" fill-rule="evenodd"><use fill="#338bd3" xlink:href="#a"/><path d="m231.528423 174.001577c-16.386537 38.782461-54.779166 65.998423-99.528423 65.998423-44.7492572 0-83.1418859-27.215962-99.5284225-65.998423z" fill="#66a8de" mask="url(#b)"/><g transform="translate(192 24)"><path d="m24 48c13.254834 0 24-10.745166 24-24s-10.745166-24-24-24-24 10.745166-24 24 10.745166 24 24 24z" fill="#fac705"/><path d="m27 9h-6v12h-12v6h12v12h6v-12h12v-6h-12z" fill="#12395b" fill-rule="nonzero"/></g><g transform="translate(60 60)"><path d="m48 105c0 6.627417-5.372583 12-12 12s-12-5.372583-12-12h-7.5l-3-6h-7.5v-24l13.998-42h58.002l30 30h24c1.656854 0 3.156854.6715729 4.242641 1.7573593 1.085786 1.0857865 1.757359 2.5857865 1.757359 4.2426407v30h-7.5l-3 6h-7.5c0 6.627417-5.372583 12-12 12s-12-5.372583-12-12z" fill="#fff"/><path d="m36 102c.8289202 0 1.57932.336186 2.1222896.879649l-4.2426403 4.242641c-.543463-.54297-.8796493-1.29337-.8796493-2.12229 0-1.656854 1.3431458-3 3-3zm72 0c.82892 0 1.57932.336186 2.12229.879649l-4.242641 4.242641c-.543463-.54297-.879649-1.29337-.879649-2.12229 0-1.656854 1.343146-3 3-3zm-62.8245553-15c2.5825824 0 4.8754155 1.6525806 5.6920998 4.1026334l1.6324555 4.8973666h39l1.6324555-4.8973666c.8166843-2.4500528 3.1095174-4.1026334 5.6920998-4.1026334h18.3508897c2.582582 0 4.875415 1.6525806 5.692099 4.1026334l1.632456 4.8973666h4.145898l.354102 1.5v6h-2l.5 1.5h-7.5c0-6.627417-5.372583-12-12-12s-12 5.372583-12 12h-7.5l.5-1.5h-34l.5 1.5h-7.5c0-6.627417-5.372583-12-12-12s-12 5.372583-12 12h-7.5l.5-1.5h-2v-6l.354102-1.5h4.145898l1.6324555-4.8973666c.8166843-2.4500528 3.1095174-4.1026334 5.6920998-4.1026334zm85.3245553-16.5v12c-3.313708 0-6-2.6862915-6-6s2.686292-6 6-6zm-46.5-6 1.5 1.5v6h6l-3 3h-6v-9zm-35.25 6-3.75 4.5h-6v-4.5zm27 0-3.75 4.5h-6v-4.5z" fill="#99c5e9"/><path d="m33 51 1.5 1.5v13.5h-17.595l4.4985-13.5 1.0965-1.5zm27 0 1.5 1.5v13.5h-22.5v-13.5l1.5-1.5zm24 0 2.892 1.5 13.5 13.5h-8.892c0-3.3137085-2.6862915-6-6-6l-.001 6h-19.499v-13.5l1.5-1.5z" fill="#006ec8"/><path d="m79.2426407 30 30.0023593 30h22.755c4.881803 0 8.855791 3.8868137 8.996163 8.7346377l.003837.2653623v33h-8.646l-2.999898 6-6.654232.00037c-1.389954 6.846537-7.443127 11.99963-14.69987 11.99963s-13.3099164-5.153093-14.6998705-11.99963h-42.600259c-1.3899541 6.846537-7.4431276 11.99963-14.6998705 11.99963s-13.3099164-5.153093-14.6998705-11.99963l-6.6542315-.00037-3.002898-6h-8.643v-27.486767l14.8356247-44.513233zm28.7573593 69c-3.313708 0-6 2.686292-6 6s2.686292 6 6 6 6-2.686292 6-6-2.686292-6-6-6zm-72 0c-3.3137085 0-6 2.686292-6 6s2.6862915 6 6 6 6-2.686292 6-6-2.6862915-6-6-6zm40.755-63h-54.597l-13.158 39.48v20.52h6.354102l2.999898 6 2.9459273.000626c1.3895692-6.847033 7.4429779-12.000626 14.7000727-12.000626s13.3105035 5.153593 14.7000727 12.000626h42.5998546c1.3895692-6.847033 7.4429777-12.000626 14.7000727-12.000626s13.310503 5.153593 14.700073 12.000626l2.942927-.000626 3.002898-6h6.354102v-27c0-1.6568542-1.343146-3-3-3h-25.242641zm-42.2555 4.5v12h-13.095l3.9994384-12zm27 0v12h-22.5v-12zm13.3938983 0 11.9981017 12h-20.892v-12z" fill="#12395b" fill-rule="nonzero"/></g></g></svg>