<?xml version="1.0" encoding="UTF-8"?>
<svg width="48px" height="48px" viewBox="0 0 48 48" version="1.1" xmlns="http://www.w3.org/2000/svg" xmlns:xlink="http://www.w3.org/1999/xlink">
    <title>illustration-base/mobile-48/literal/illo-house</title>
    <g id="illustration-base/mobile-48/literal/illo-house" stroke="none" stroke-width="1" fill="none" fill-rule="evenodd">
        <path d="M24,3.8 L41,14 L41,41 L24.8997409,40.9988136 C24.9654854,41.3222913 25,41.657115 25,42 C25,42.3425323 24.9655564,42.6770198 24.8999437,43.000188 L3.06188768,42.9999513 C3.02104125,42.6723727 3,42.3386436 3,42 C3,39.0389366 4.60872276,36.4536106 6.99984002,35.0703501 L7,14 L13,10.399 L13,5 L17,5 L17,8 L24,3.8 Z" id="bg" fill="#FFFFFF"></path>
        <path d="M31.999749,27 C34.208888,27 35.999749,28.790861 35.999749,31 L35.999749,41 L27.999749,41 L27.999749,31 C27.999749,28.790861 29.79061,27 31.999749,27 Z M27,13 L27,19 L21,19 L21,13 L27,13 Z" id="shapes" fill="#006EC8"></path>
        <path d="M24,2.63380962 L44.5144958,14.9425071 L43.4855042,16.6574929 L42,15.7658096 L42,42 L26,42 L26,44 L2,44 L2,42 C2,38.8796769 3.58793383,36.1302357 5.99978429,34.5156934 L6,15.7648096 L4.51449576,16.6574929 L3.48550424,14.9425071 L12,9.83280962 L12,4 L18,4 L18,6.23280962 L24,2.63380962 Z M11,35 C7.13400675,35 4,38.1340068 4,42 L4,42 L24,42 C24,39.790861 22.209139,38 20,38 C18.9758117,38 18.0415273,38.3849244 17.3350475,39.0183379 C16.2153532,36.643509 13.7996077,35 11,35 Z M24,4.966 L8,14.5648096 L8.00041586,33.5119702 C8.8594563,33.2083906 9.77834959,33.031527 10.7346377,33.0038371 L11,33 C13.7145291,33 16.2101946,34.2132734 17.8860086,36.2032919 L17.8860086,36.2032919 L18,36.343 L18.104396,36.3061914 C18.6211403,36.1342226 19.1641861,36.0321005 19.7206875,36.0064323 L19.7206875,36.0064323 L20,36 C22.6119247,36 24.834043,37.6689596 25.6581032,39.9986273 L40,39.999 L40,14.5658096 L24,4.966 Z M16,6 L14,6 L14,8.63280962 L16,7.43280962 L16,6 Z" id="strokes" fill="#12395B" fill-rule="nonzero"></path>
    </g>
</svg>